<mxfile host="65bd71144e">
    <diagram id="ahd36X8mNN3--FS8By5x" name="Page-1">
        <mxGraphModel dx="762" dy="1519" grid="1" gridSize="10" guides="1" tooltips="1" connect="1" arrows="1" fold="1" page="1" pageScale="1" pageWidth="850" pageHeight="1100" math="0" shadow="0">
            <root>
                <mxCell id="0"/>
                <mxCell id="1" parent="0"/>
                <mxCell id="2" value="&lt;font style=&quot;font-size: 19px;&quot;&gt;ESP32 D V4&lt;/font&gt;" style="rounded=1;whiteSpace=wrap;html=1;" vertex="1" parent="1">
                    <mxGeometry x="190" y="210" width="210" height="70" as="geometry"/>
                </mxCell>
                <mxCell id="3" value="SQL" style="shape=cylinder3;whiteSpace=wrap;html=1;boundedLbl=1;backgroundOutline=1;size=15;fontSize=19;" vertex="1" parent="1">
                    <mxGeometry x="660" y="-240" width="60" height="80" as="geometry"/>
                </mxCell>
                <mxCell id="6" value="MQTT" style="rounded=1;strokeWidth=2;fillWeight=4;hachureGap=8;hachureAngle=45;sketch=1;fontFamily=Times New Roman;fontSize=19;labelBackgroundColor=none;labelBorderColor=none;whiteSpace=wrap;html=1;fontStyle=1;fillColor=#666666;strokeColor=#666666;" vertex="1" parent="1">
                    <mxGeometry x="470" y="-30" width="120" height="60" as="geometry"/>
                </mxCell>
                <mxCell id="20" style="edgeStyle=none;html=1;entryX=1.02;entryY=0.921;entryDx=0;entryDy=0;entryPerimeter=0;fontFamily=Times New Roman;fontSize=19;fontColor=default;" edge="1" parent="1" source="19" target="3">
                    <mxGeometry relative="1" as="geometry"/>
                </mxCell>
                <mxCell id="29" value="KIRIM KE DATABES" style="edgeLabel;html=1;align=center;verticalAlign=middle;resizable=0;points=[];fontSize=19;fontFamily=Times New Roman;fontColor=default;" vertex="1" connectable="0" parent="20">
                    <mxGeometry x="0.1399" y="-1" relative="1" as="geometry">
                        <mxPoint as="offset"/>
                    </mxGeometry>
                </mxCell>
                <mxCell id="27" style="edgeStyle=none;html=1;entryX=1;entryY=0.5;entryDx=0;entryDy=0;fontFamily=Times New Roman;fontSize=19;fontColor=default;" edge="1" parent="1" source="19" target="6">
                    <mxGeometry relative="1" as="geometry"/>
                </mxCell>
                <mxCell id="28" value="AMBIL DATA&amp;nbsp;" style="edgeLabel;html=1;align=center;verticalAlign=middle;resizable=0;points=[];fontSize=19;fontFamily=Times New Roman;fontColor=default;" vertex="1" connectable="0" parent="27">
                    <mxGeometry x="0.1391" y="1" relative="1" as="geometry">
                        <mxPoint as="offset"/>
                    </mxGeometry>
                </mxCell>
                <mxCell id="19" value="Dashboard" style="rounded=0;whiteSpace=wrap;html=1;labelBackgroundColor=none;labelBorderColor=none;strokeColor=#666666;fontFamily=Times New Roman;fontSize=19;fontColor=default;fillColor=#666666;" vertex="1" parent="1">
                    <mxGeometry x="870" y="-30" width="120" height="60" as="geometry"/>
                </mxCell>
                <mxCell id="34" value="" style="group" vertex="1" connectable="0" parent="1">
                    <mxGeometry x="210" y="380" width="170" height="90" as="geometry"/>
                </mxCell>
                <mxCell id="30" value="" style="rounded=0;whiteSpace=wrap;html=1;labelBackgroundColor=none;labelBorderColor=none;fontFamily=Times New Roman;fontSize=19;" vertex="1" parent="34">
                    <mxGeometry y="20" width="170" height="70" as="geometry"/>
                </mxCell>
                <mxCell id="31" value="" style="ellipse;whiteSpace=wrap;html=1;aspect=fixed;labelBackgroundColor=none;labelBorderColor=none;fontFamily=Times New Roman;fontSize=19;" vertex="1" parent="34">
                    <mxGeometry x="20" y="30" width="50" height="50" as="geometry"/>
                </mxCell>
                <mxCell id="32" value="" style="ellipse;whiteSpace=wrap;html=1;aspect=fixed;labelBackgroundColor=none;labelBorderColor=none;fontFamily=Times New Roman;fontSize=19;" vertex="1" parent="34">
                    <mxGeometry x="100" y="30" width="50" height="50" as="geometry"/>
                </mxCell>
                <mxCell id="33" value="" style="rounded=0;whiteSpace=wrap;html=1;labelBackgroundColor=none;labelBorderColor=none;fontFamily=Times New Roman;fontSize=19;" vertex="1" parent="34">
                    <mxGeometry x="55" width="60" height="20" as="geometry"/>
                </mxCell>
            </root>
        </mxGraphModel>
    </diagram>
</mxfile>